<?xml version="1.0" encoding="utf-8"?>
<!-- Generator: Adobe Illustrator 16.0.0, SVG Export Plug-In . SVG Version: 6.00 Build 0)  -->
<!DOCTYPE svg PUBLIC "-//W3C//DTD SVG 1.1//EN" "http://www.w3.org/Graphics/SVG/1.1/DTD/svg11.dtd">
<svg version="1.1" id="Layer_1" xmlns="http://www.w3.org/2000/svg" xmlns:xlink="http://www.w3.org/1999/xlink" x="0px" y="0px"
	 width="200px" height="200px" viewBox="0 0 200 200" enable-background="new 0 0 200 200" xml:space="preserve">
<g>
	<path fill="#26D4D4" d="M77.744,24.83c5.421,1.265,9.524,4.442,12.27,9.15c1.755,3.013,3.318,6.251,4.268,9.592
		c3.146,11.053,2.518,21.946-2.442,32.431c-1.668,3.525-3.964,6.618-7.111,9c-6.04,4.576-13.257,4.251-18.892-0.872
		c-4.942-4.486-7.594-10.259-9.072-16.62c-2.166-9.308-1.77-18.511,1.724-27.445C61.358,32.73,65.74,26.782,73.98,24.83
		C75.233,24.83,76.489,24.83,77.744,24.83z"/>
	<path fill="#26D4D4" d="M124.969,24.83c6.469,1.457,10.784,5.632,13.645,11.323c1.521,3.03,2.812,6.283,3.554,9.58
		c2.574,11.402,1.597,22.448-4.399,32.722c-2.494,4.277-5.879,7.739-10.766,9.167c-6.285,1.835-11.352-0.588-15.547-5.173
		c-4.336-4.731-6.615-10.498-7.775-16.7c-1.688-9.011-1.121-17.877,2.398-26.425c2.18-5.283,5.268-9.895,10.438-12.711
		c1.452-0.792,3.117-1.199,4.687-1.782C122.459,24.83,123.711,24.83,124.969,24.83z"/>
	<path fill="#26D4D4" d="M134.807,103.275c1.103-12.417,5.799-22.961,16.941-29.817c3.38-2.083,7.148-2.986,11.098-1.704
		c5.063,1.646,7.442,5.627,8.445,10.497c1.712,8.312-0.422,15.986-4.441,23.21c-3.009,5.406-6.99,9.966-12.666,12.727
		c-8.852,4.308-16.849,0.27-18.715-9.41C135.134,107.033,135.036,105.241,134.807,103.275z"/>
	<path fill="#26D4D4" d="M64.258,103.695c-0.464,2.449-0.68,4.98-1.438,7.339c-2.517,7.851-9.628,10.934-17.188,7.584
		c-5.152-2.285-8.982-6.099-12.044-10.726c-4.227-6.386-6.666-13.373-6.465-21.087c0.061-2.282,0.459-4.637,1.17-6.802
		c2.542-7.717,9.516-10.737,17.003-7.501c5.227,2.258,9.084,6.115,12.182,10.776C61.578,89.44,63.887,96.196,64.258,103.695z"/>
	<path fill="#26D4D4" d="M150.518,148.118c-6.929-12.822-15.172-24.752-24.597-35.863c-3.04-3.588-6.354-6.841-10.897-8.603
		c-5.961-2.309-12.098-2.863-18.354-1.961c-5.387,0.776-10.451,2.584-14.459,6.41c-2.855,2.724-5.521,5.678-8.019,8.735
		c-6.758,8.281-12.473,17.293-17.906,26.474c-1.733,2.929-3.282,6.039-4.379,9.248c-2.301,6.746-0.282,17.364,10.189,20.418
		c1.792,0.521,3.67-0.978,5.508,2.022c2.124,0,4.249,0,6.375,0c4.02-3,7.866-2.849,11.303-5.008c2.792-1.759,5.71-3.562,8.938-3.957
		c7.506-0.906,15.016-1.54,22.139,1.815c2.914,1.368,5.726,3.764,8.688,5.006c1.699,0.709,3.609-0.856,5.426,2.144
		c2.027,0,4.057,0,6.086,0c1.555-3,3.133-1.41,4.662-1.804c6.016-1.529,10.102-5.545,11.473-11.77
		C153.698,156.873,152.686,152.134,150.518,148.118z M123,140h-15v15H96v-15H81v-15h15v-15h12v15h15V140z"/>
</g>
</svg>
